<?xml version="1.0" standalone="no"?>
<!DOCTYPE svg PUBLIC "-//W3C//DTD SVG 20010904//EN"
 "http://www.w3.org/TR/2001/REC-SVG-20010904/DTD/svg10.dtd">
<svg version="1.0" xmlns="http://www.w3.org/2000/svg"
 width="200.000000pt" height="200.000000pt" viewBox="0 0 200.000000 200.000000"
 preserveAspectRatio="xMidYMid meet">
<metadata>
Created by potrace 1.16, written by Peter Selinger 2001-2019
</metadata><g><rect x="0" y="0" width="200" height="200" fill="#ffffff" />
<g transform="translate(0.000000,200.000000) scale(0.021368,-0.021368)"
fill="#001eff" stroke="none">
<path d="M720 7800 l0 -840 840 0 840 0 0 840 0 840 -840 0 -840 0 0 -840z
m1440 0 l0 -600 -600 0 -600 0 0 600 0 600 600 0 600 0 0 -600z"/>
<path d="M1200 7800 l0 -360 360 0 360 0 0 360 0 360 -360 0 -360 0 0 -360z"/>
<path d="M2640 8520 l0 -120 240 0 240 0 0 120 0 120 -240 0 -240 0 0 -120z"/>
<path d="M3840 8400 l0 -240 -240 0 -240 0 0 -240 0 -240 -120 0 -120 0 0 120
0 120 -120 0 -120 0 0 120 0 120 -120 0 -120 0 0 -360 0 -360 120 0 120 0 0
-120 0 -120 -120 0 -120 0 0 -120 0 -120 120 0 120 0 0 -120 0 -120 -120 0
-120 0 0 -120 0 -120 -120 0 -120 0 0 120 0 120 -120 0 -120 0 0 -120 0 -120
120 0 120 0 0 -120 0 -120 -120 0 -120 0 0 -120 0 -120 120 0 120 0 0 120 0
120 120 0 120 0 0 120 0 120 120 0 120 0 0 -120 0 -120 120 0 120 0 0 120 0
120 -120 0 -120 0 0 120 0 120 120 0 120 0 0 120 0 120 120 0 120 0 0 -120 0
-120 120 0 120 0 0 120 0 120 120 0 120 0 0 120 0 120 120 0 120 0 0 -120 0
-120 120 0 120 0 0 240 0 240 240 0 240 0 0 120 0 120 120 0 120 0 0 120 0
120 -120 0 -120 0 0 120 0 120 -240 0 -240 0 0 -120 0 -120 -120 0 -120 0 0
360 0 360 -120 0 -120 0 0 -240z m0 -720 l0 -240 -120 0 -120 0 0 -240 0 -240
-120 0 -120 0 0 120 0 120 -120 0 -120 0 0 -120 0 -120 -120 0 -120 0 0 120 0
120 120 0 120 0 0 120 0 120 240 0 240 0 0 240 0 240 120 0 120 0 0 -240z"/>
<path d="M5040 8520 l0 -120 600 0 600 0 0 -120 0 -120 -120 0 -120 0 0 -120
0 -120 120 0 120 0 0 -120 0 -120 -360 0 -360 0 0 120 0 120 120 0 120 0 0
120 0 120 -120 0 -120 0 0 -120 0 -120 -120 0 -120 0 0 -240 0 -240 -120 0
-120 0 0 -240 0 -240 -120 0 -120 0 0 120 0 120 -120 0 -120 0 0 -240 0 -240
120 0 120 0 0 -120 0 -120 -120 0 -120 0 0 -120 0 -120 240 0 240 0 0 -240 0
-240 -120 0 -120 0 0 -120 0 -120 -480 0 -480 0 0 -120 0 -120 -120 0 -120 0
0 240 0 240 240 0 240 0 0 120 0 120 -360 0 -360 0 0 -240 0 -240 -120 0 -120
0 0 120 0 120 -120 0 -120 0 0 120 0 120 -120 0 -120 0 0 -120 0 -120 -360 0
-360 0 0 120 0 120 -240 0 -240 0 0 120 0 120 240 0 240 0 0 120 0 120 -120 0
-120 0 0 120 0 120 -480 0 -480 0 0 -120 0 -120 360 0 360 0 0 -120 0 -120
-120 0 -120 0 0 -240 0 -240 -240 0 -240 0 0 -360 0 -360 240 0 240 0 0 -120
0 -120 120 0 120 0 0 -120 0 -120 120 0 120 0 0 120 0 120 120 0 120 0 0 120
0 120 -360 0 -360 0 0 120 0 120 480 0 480 0 0 -120 0 -120 360 0 360 0 0 120
0 120 -120 0 -120 0 0 120 0 120 240 0 240 0 0 -360 0 -360 -480 0 -480 0 0
-120 0 -120 120 0 120 0 0 -120 0 -120 -120 0 -120 0 0 -120 0 -120 -120 0
-120 0 0 120 0 120 -120 0 -120 0 0 -240 0 -240 -120 0 -120 0 0 -120 0 -120
120 0 120 0 0 120 0 120 120 0 120 0 0 -240 0 -240 -120 0 -120 0 0 -120 0
-120 -120 0 -120 0 0 120 0 120 -120 0 -120 0 0 360 0 360 120 0 120 0 0 120
0 120 -120 0 -120 0 0 -120 0 -120 -120 0 -120 0 0 -240 0 -240 -120 0 -120 0
0 -120 0 -120 240 0 240 0 0 -120 0 -120 -120 0 -120 0 0 -120 0 -120 -120 0
-120 0 0 -120 0 -120 120 0 120 0 0 120 0 120 120 0 120 0 0 -120 0 -120 120
0 120 0 0 120 0 120 120 0 120 0 0 -120 0 -120 480 0 480 0 0 -120 0 -120 120
0 120 0 0 -120 0 -120 120 0 120 0 0 120 0 120 120 0 120 0 0 -240 0 -240 120
0 120 0 0 -120 0 -120 120 0 120 0 0 120 0 120 -120 0 -120 0 0 240 0 240 120
0 120 0 0 -120 0 -120 120 0 120 0 0 -360 0 -360 -120 0 -120 0 0 -360 0 -360
840 0 840 0 0 120 0 120 -120 0 -120 0 0 240 0 240 -120 0 -120 0 0 120 0 120
120 0 120 0 0 120 0 120 120 0 120 0 0 480 0 480 -120 0 -120 0 0 240 0 240
240 0 240 0 0 -120 0 -120 120 0 120 0 0 120 0 120 -120 0 -120 0 0 120 0 120
120 0 120 0 0 120 0 120 120 0 120 0 0 -360 0 -360 120 0 120 0 0 -240 0 -240
-120 0 -120 0 0 120 0 120 -120 0 -120 0 0 -120 0 -120 120 0 120 0 0 -120 0
-120 -120 0 -120 0 0 -120 0 -120 -120 0 -120 0 0 -240 0 -240 -120 0 -120 0
0 -240 0 -240 120 0 120 0 0 240 0 240 1080 0 1080 0 0 -120 0 -120 -120 0
-120 0 0 -120 0 -120 240 0 240 0 0 240 0 240 120 0 120 0 0 -120 0 -120 120
0 120 0 0 120 0 120 -120 0 -120 0 0 120 0 120 120 0 120 0 0 120 0 120 -120
0 -120 0 0 -120 0 -120 -120 0 -120 0 0 240 0 240 -240 0 -240 0 0 240 0 240
120 0 120 0 0 120 0 120 120 0 120 0 0 -120 0 -120 120 0 120 0 0 -120 0 -120
120 0 120 0 0 120 0 120 -120 0 -120 0 0 120 0 120 120 0 120 0 0 240 0 240
-240 0 -240 0 0 120 0 120 -120 0 -120 0 0 240 0 240 120 0 120 0 0 -120 0
-120 120 0 120 0 0 -120 0 -120 120 0 120 0 0 120 0 120 -120 0 -120 0 0 120
0 120 120 0 120 0 0 240 0 240 -240 0 -240 0 0 240 0 240 120 0 120 0 0 120 0
120 -240 0 -240 0 0 120 0 120 -240 0 -240 0 0 120 0 120 120 0 120 0 0 120 0
120 -120 0 -120 0 0 -120 0 -120 -120 0 -120 0 0 240 0 240 -120 0 -120 0 0
120 0 120 -120 0 -120 0 0 960 0 960 -840 0 -840 0 0 -120z m1440 -1200 l0
-360 -120 0 -120 0 0 360 0 360 120 0 120 0 0 -360z m-480 -240 l0 -360 -120
0 -120 0 0 -120 0 -120 240 0 240 0 0 120 0 120 240 0 240 0 0 -120 0 -120
120 0 120 0 0 -360 0 -360 120 0 120 0 0 -120 0 -120 240 0 240 0 0 -120 0
-120 120 0 120 0 0 -240 0 -240 -240 0 -240 0 0 -120 0 -120 -120 0 -120 0 0
120 0 120 120 0 120 0 0 120 0 120 -120 0 -120 0 0 120 0 120 -120 0 -120 0 0
-120 0 -120 -120 0 -120 0 0 -360 0 -360 -120 0 -120 0 0 -120 0 -120 120 0
120 0 0 -120 0 -120 -120 0 -120 0 0 120 0 120 -120 0 -120 0 0 120 0 120 120
0 120 0 0 120 0 120 -120 0 -120 0 0 120 0 120 -120 0 -120 0 0 120 0 120
-240 0 -240 0 0 360 0 360 -120 0 -120 0 0 -360 0 -360 -120 0 -120 0 0 -120
0 -120 240 0 240 0 0 -360 0 -360 120 0 120 0 0 120 0 120 120 0 120 0 0 -240
0 -240 -120 0 -120 0 0 -120 0 -120 -120 0 -120 0 0 120 0 120 -120 0 -120 0
0 120 0 120 -120 0 -120 0 0 240 0 240 -120 0 -120 0 0 -120 0 -120 -120 0
-120 0 0 120 0 120 -120 0 -120 0 0 -240 0 -240 120 0 120 0 0 -360 0 -360
120 0 120 0 0 -120 0 -120 120 0 120 0 0 -120 0 -120 120 0 120 0 0 -480 0
-480 -120 0 -120 0 0 -120 0 -120 -240 0 -240 0 0 120 0 120 -120 0 -120 0 0
120 0 120 -120 0 -120 0 0 120 0 120 -120 0 -120 0 0 240 0 240 -120 0 -120 0
0 -120 0 -120 -480 0 -480 0 0 120 0 120 360 0 360 0 0 120 0 120 -480 0 -480
0 0 -120 0 -120 -120 0 -120 0 0 120 0 120 120 0 120 0 0 120 0 120 -120 0
-120 0 0 120 0 120 120 0 120 0 0 -120 0 -120 240 0 240 0 0 120 0 120 -120 0
-120 0 0 240 0 240 -120 0 -120 0 0 -120 0 -120 -120 0 -120 0 0 120 0 120
120 0 120 0 0 120 0 120 120 0 120 0 0 -120 0 -120 120 0 120 0 0 -240 0 -240
120 0 120 0 0 120 0 120 120 0 120 0 0 120 0 120 120 0 120 0 0 -120 0 -120
-120 0 -120 0 0 -120 0 -120 120 0 120 0 0 -120 0 -120 -120 0 -120 0 0 -120
0 -120 360 0 360 0 0 120 0 120 120 0 120 0 0 120 0 120 -120 0 -120 0 0 120
0 120 -120 0 -120 0 0 240 0 240 120 0 120 0 0 120 0 120 -240 0 -240 0 0
-120 0 -120 -120 0 -120 0 0 120 0 120 120 0 120 0 0 120 0 120 -120 0 -120 0
0 240 0 240 120 0 120 0 0 -240 0 -240 240 0 240 0 0 120 0 120 -120 0 -120 0
0 120 0 120 120 0 120 0 0 -120 0 -120 120 0 120 0 0 120 0 120 240 0 240 0 0
-120 0 -120 120 0 120 0 0 360 0 360 120 0 120 0 0 240 0 240 120 0 120 0 0
-240 0 -240 120 0 120 0 0 120 0 120 360 0 360 0 0 240 0 240 -120 0 -120 0 0
-120 0 -120 -240 0 -240 0 0 120 0 120 -240 0 -240 0 0 120 0 120 -120 0 -120
0 0 120 0 120 120 0 120 0 0 120 0 120 120 0 120 0 0 -240 0 -240 120 0 120 0
0 360 0 360 120 0 120 0 0 -360z m-4080 -1440 l0 -120 -360 0 -360 0 0 120 0
120 360 0 360 0 0 -120z m480 -240 l0 -120 -120 0 -120 0 0 120 0 120 120 0
120 0 0 -120z m720 -960 l0 -120 -120 0 -120 0 0 120 0 120 120 0 120 0 0
-120z m5280 0 l0 -120 -120 0 -120 0 0 120 0 120 120 0 120 0 0 -120z m-720
-360 l0 -240 120 0 120 0 0 -120 0 -120 120 0 120 0 0 -120 0 -120 -120 0
-120 0 0 -120 0 -120 -120 0 -120 0 0 -120 0 -120 -240 0 -240 0 0 120 0 120
-120 0 -120 0 0 -120 0 -120 -120 0 -120 0 0 120 0 120 120 0 120 0 0 120 0
120 -240 0 -240 0 0 120 0 120 240 0 240 0 0 120 0 120 120 0 120 0 0 -120 0
-120 120 0 120 0 0 240 0 240 -120 0 -120 0 0 120 0 120 240 0 240 0 0 -240z
m-5760 -1080 l0 -120 -120 0 -120 0 0 120 0 120 120 0 120 0 0 -120z m5520
-720 l0 -360 -360 0 -360 0 0 360 0 360 360 0 360 0 0 -360z m-2400 -960 l0
-120 -240 0 -240 0 0 120 0 120 240 0 240 0 0 -120z"/>
<path d="M6480 5880 l0 -120 -360 0 -360 0 0 -240 0 -240 120 0 120 0 0 120 0
120 240 0 240 0 0 -240 0 -240 120 0 120 0 0 240 0 240 120 0 120 0 0 120 0
120 -120 0 -120 0 0 120 0 120 -120 0 -120 0 0 -120z"/>
<path d="M4560 4920 l0 -120 120 0 120 0 0 120 0 120 -120 0 -120 0 0 -120z"/>
<path d="M4320 3000 l0 -120 -120 0 -120 0 0 -240 0 -240 120 0 120 0 0 120 0
120 120 0 120 0 0 -120 0 -120 240 0 240 0 0 240 0 240 -120 0 -120 0 0 120 0
120 -240 0 -240 0 0 -120z"/>
<path d="M4560 2040 l0 -120 120 0 120 0 0 120 0 120 -120 0 -120 0 0 -120z"/>
<path d="M6960 3480 l0 -120 120 0 120 0 0 120 0 120 -120 0 -120 0 0 -120z"/>
<path d="M7680 3480 l0 -120 120 0 120 0 0 120 0 120 -120 0 -120 0 0 -120z"/>
<path d="M6960 2280 l0 -120 120 0 120 0 0 120 0 120 -120 0 -120 0 0 -120z"/>
<path d="M6960 7800 l0 -840 840 0 840 0 0 840 0 840 -840 0 -840 0 0 -840z
m1440 0 l0 -600 -600 0 -600 0 0 600 0 600 600 0 600 0 0 -600z"/>
<path d="M7440 7800 l0 -360 360 0 360 0 0 360 0 360 -360 0 -360 0 0 -360z"/>
<path d="M4080 6600 l0 -120 120 0 120 0 0 120 0 120 -120 0 -120 0 0 -120z"/>
<path d="M7440 6600 l0 -120 240 0 240 0 0 -240 0 -240 120 0 120 0 0 -120 0
-120 120 0 120 0 0 120 0 120 120 0 120 0 0 360 0 360 -120 0 -120 0 0 -120 0
-120 -120 0 -120 0 0 120 0 120 -360 0 -360 0 0 -120z"/>
<path d="M720 4680 l0 -120 120 0 120 0 0 120 0 120 -120 0 -120 0 0 -120z"/>
<path d="M720 1560 l0 -840 840 0 840 0 0 840 0 840 -840 0 -840 0 0 -840z
m1440 0 l0 -600 -600 0 -600 0 0 600 0 600 600 0 600 0 0 -600z"/>
<path d="M1200 1560 l0 -360 360 0 360 0 0 360 0 360 -360 0 -360 0 0 -360z"/>
<path d="M2640 1200 l0 -480 120 0 120 0 0 120 0 120 360 0 360 0 0 120 0 120
-120 0 -120 0 0 240 0 240 -360 0 -360 0 0 -480z m480 120 l0 -120 -120 0
-120 0 0 120 0 120 120 0 120 0 0 -120z"/>
<path d="M6000 1320 l0 -120 120 0 120 0 0 -240 0 -240 120 0 120 0 0 120 0
120 120 0 120 0 0 120 0 120 -120 0 -120 0 0 120 0 120 -240 0 -240 0 0 -120z"/>
<path d="M6960 1200 l0 -240 120 0 120 0 0 -120 0 -120 480 0 480 0 0 120 0
120 -480 0 -480 0 0 240 0 240 -120 0 -120 0 0 -240z"/>
<path d="M8400 1080 l0 -120 120 0 120 0 0 120 0 120 -120 0 -120 0 0 -120z"/>
<path d="M5760 840 l0 -120 120 0 120 0 0 120 0 120 -120 0 -120 0 0 -120z"/>
</g>
</g></svg>
